# xmcd
#
# Track frame offsets:
#	150
#	16221
#	30239
#	48570
#	65480
#	82003
#	97725
#	112437
#	129631
#	144183
#	158370
#	176336
#	193031
#
# Disc length: 2785 seconds
#
# Revision: 1
# Processed by: cddbd v1.5.2PL0 Copyright (c) Steve Scherf et al.
# Submitted via: audiograbber 1.83.01
#
DISCID=a10adf0d
DTITLE=Yölintu - Haavoittumaton
DYEAR=2007
DGENRE=
TTITLE0=Haavoittumaton
TTITLE1=Päätalo ja Huovinen
TTITLE2=Sametin pintaa
TTITLE3=Milloin milloin
TTITLE4=Kaukainen tähti
TTITLE5=Tein susta laulun
TTITLE6=Anna mennä vaan
TTITLE7=Preussinpunaiseen
TTITLE8=Jos sinut saan
TTITLE9=Kaunis nainen - Oh, Pretty Woman
TTITLE10=Kaupungin äänet
TTITLE11=Täysikasvuinen mies
TTITLE12=Outoa voimaa \nOutoa voimaa \nOutoa voimaa \nOutoa voimaa
EXTD=
EXTT0=
EXTT1=
EXTT2=
EXTT3=
EXTT4=
EXTT5=
EXTT6=
EXTT7=
EXTT8=
EXTT9=
EXTT10=
EXTT11=
EXTT12=
PLAYORDER=
